<?xml version="1.0" encoding="UTF-8"?>
<svg id="Layer_2" data-name="Layer 2" xmlns="http://www.w3.org/2000/svg" viewBox="0 0 289.13 384.45">
  <defs>
    <style>
      .cls-1, .cls-2 {
        fill: #333;
      }

      .cls-2 {
        fill-rule: evenodd;
      }
    </style>
  </defs>
  <g id="Layer_1-2" data-name="Layer 1">
    <path class="cls-2" d="M250.58,384.45H23.48c-12.91,0-23.48-10.57-23.48-23.48V23.48c0-6.46,2.64-12.33,6.89-16.59C11.15,2.64,17.02,0,23.48,0h201.25v8.76H23.48c-4.04,0-7.72,1.66-10.39,4.32-2.67,2.67-4.33,6.35-4.33,10.39s1.66,7.72,4.33,10.39c2.67,2.67,6.35,4.33,10.39,4.33v244.32l17.78-18.72,17.78,18.72V38.2h206.61c12.91,0,23.48,10.57,23.48,23.48v299.29c0,12.91-10.57,23.48-23.48,23.48h-15.07"/>
    <path class="cls-1" d="M238.58,0h-97.16v8.76h97.16c4.04,0,7.72,1.66,10.39,4.32,2.67,2.67,4.33,6.35,4.33,10.39h8.76c0-6.46-2.64-12.33-6.89-16.59-4.26-4.25-10.13-6.89-16.59-6.89"/>
    <path class="cls-2" d="M253.3,23.48h8.76v102.07h-8.76V23.48"/>
  </g>
</svg>