<?xml version="1.0" encoding="UTF-8"?>
<svg id="Layer_2" data-name="Layer 2" xmlns="http://www.w3.org/2000/svg" viewBox="0 0 433.69 478.86">
  <defs>
    <style>
      .cls-1 {
        fill: #333;
        fill-rule: evenodd;
      }
    </style>
  </defs>
  <g id="Layer_1-2" data-name="Layer 1">
    <path class="cls-1" d="M128.14,384.45H23.48c-12.91,0-23.48-10.56-23.48-23.48V23.48c0-6.46,2.64-12.33,6.9-16.59S17.02,0,23.48,0h215.1c6.46,0,12.33,2.64,16.59,6.89,4.25,4.26,6.89,10.13,6.89,16.59v14.72h3.59c12.91,0,23.48,10.57,23.48,23.48v16.29h-121.08c-10.6,0-20.71,4.22-28.21,11.71-7.49,7.49-11.7,17.6-11.7,28.2v266.57ZM253.3,23.48c0-4.04-1.66-7.72-4.33-10.39-2.67-2.67-6.35-4.33-10.39-4.33H23.48c-4.04,0-7.72,1.66-10.39,4.33-2.67,2.67-4.33,6.35-4.33,10.39s1.66,7.72,4.33,10.39c2.67,2.67,6.35,4.33,10.39,4.33h229.82v-14.72"/>
    <path class="cls-1" d="M395.14,478.86h-227.09c-12.92,0-23.48-10.57-23.48-23.48V117.88c0-6.46,2.64-12.33,6.89-16.58,4.25-4.26,10.13-6.9,16.59-6.9h215.1c6.46,0,12.33,2.64,16.58,6.9,4.26,4.25,6.9,10.12,6.9,16.58v14.73h3.58c12.92,0,23.48,10.56,23.48,23.48v299.29c0,12.91-10.56,23.48-23.48,23.48h-15.07ZM397.87,117.88c0-4.04-1.66-7.72-4.33-10.39s-6.35-4.33-10.39-4.33h-215.1c-4.05,0-7.73,1.66-10.4,4.33-2.66,2.67-4.32,6.35-4.32,10.39s1.66,7.73,4.32,10.4c2.67,2.67,6.35,4.33,10.4,4.33h229.82v-14.73"/>
  </g>
</svg>