<?xml version="1.0" encoding="UTF-8"?>
<svg id="Layer_2" data-name="Layer 2" xmlns="http://www.w3.org/2000/svg" viewBox="0 0 513.86 394.52">
  <defs>
    <style>
      .cls-1 {
        fill: #333;
        fill-rule: evenodd;
      }
    </style>
  </defs>
  <g id="Layer_1-2" data-name="Layer 1">
    <path class="cls-1" d="M236.58,326.79L10.21,249.44v24.76l215.64,73.69.08.03,11.77,4.02,265.96-155.27v-13.01l-263.72,142.85c-1.07.58-2.21.68-3.36.28ZM234.46,226.77l1.95.67.53-.31c-.83-.05-1.66-.17-2.48-.36ZM10.21,284.98v21.19l227.49,77.74,265.96-155.27v-20.16l-262.47,153.23c-1.56.91-3.27,1.08-4.98.5L10.21,284.98ZM513.86,199.95v31.09c0,2.2-1.08,4.09-2.98,5.19l-269.69,157.45c-1.56.91-3.27,1.09-4.98.5L4.08,314.85c-2.48-.85-4.07-3.07-4.07-5.69v-66c0-.15,0-.3,0-.45v-1.95h.59c.42-.7,1.05-1.27,1.85-1.63l30.05-13.77,199.91,68.31c4.94,1.69,10.2,1.16,14.71-1.47l224.29-130.94,39.31,10.3c1.52.4,2.63,1.53,3,3h.14v25.38"/>
    <path class="cls-1" d="M236.58,215.16L10.21,137.81v24.76l215.64,73.69.08.03,11.77,4.02L503.66,85.04v-13.01L239.94,214.88c-1.07.58-2.21.68-3.36.28ZM10.21,173.34v21.19l227.49,77.74L503.66,117v-20.16L241.19,250.08c-1.56.91-3.27,1.08-4.98.5L10.21,173.34ZM513.86,88.32v31.09c0,2.2-1.08,4.09-2.98,5.19l-269.69,157.45c-1.56.91-3.27,1.08-4.98.5L4.08,203.22C1.6,202.37,0,200.14,0,197.53v-66c0-.15,0-.3,0-.45v-1.95h.59c.42-.7,1.05-1.27,1.85-1.63L279.83.39c.92-.42,1.83-.5,2.81-.25l228.08,59.8c1.52.39,2.63,1.52,3,3h.14v25.38"/>
  </g>
</svg>