<?xml version="1.0" encoding="UTF-8"?>
<svg id="Layer_2" data-name="Layer 2" xmlns="http://www.w3.org/2000/svg" viewBox="0 0 509.92 388.82">
  <defs>
    <style>
      .cls-1 {
        fill: #fff;
      }

      .cls-1, .cls-2 {
        fill-rule: evenodd;
      }

      .cls-3, .cls-2 {
        fill: #333;
      }
    </style>
  </defs>
  <g id="Layer_1-2" data-name="Layer 1">
    <path class="cls-2" d="M144.57,388.82H23.48c-12.91,0-23.48-10.56-23.48-23.48V80.07c0-12.91,10.57-23.48,23.48-23.48h462.96c12.91,0,23.48,10.57,23.48,23.48v285.27c0,12.92-10.57,23.48-23.48,23.48H144.57"/>
    <path class="cls-1" d="M482.25,36.61v318.9c0,1.24-.59,2.31-1.64,2.97-1.05.66-2.27.73-3.39.19-32.88-15.77-69.71-24.61-108.61-24.61s-75.74,8.84-108.62,24.61c-1.12.54-2.34.47-3.39-.19s-1.64-1.73-1.64-2.97V33.65c0-1.37.73-2.54,1.95-3.15,33.65-16.71,71.57-26.11,111.7-26.11s78.04,9.4,111.69,26.11c1.22.61,1.95,1.78,1.95,3.15v2.96"/>
    <path class="cls-3" d="M477.87,36.61v317.54c-16.61-7.86-34.2-13.99-52.53-18.14-18.28-4.14-37.27-6.33-56.73-6.33s-38.46,2.19-56.74,6.33c-18.33,4.15-35.92,10.28-52.53,18.14V34.18c16.63-8.21,34.32-14.61,52.81-18.94,18.11-4.23,37.01-6.47,56.46-6.47s38.34,2.24,56.45,6.47c18.5,4.33,36.18,10.73,52.81,18.94v2.43ZM486.63,37.73v-4.08c0-1.5-.42-2.92-1.18-4.15-.77-1.24-1.86-2.24-3.22-2.92-17.37-8.63-35.86-15.34-55.19-19.86-18.78-4.39-38.35-6.72-58.43-6.72s-39.66,2.33-58.45,6.72c-19.32,4.52-37.81,11.23-55.18,19.86-1.36.68-2.45,1.68-3.22,2.92-.76,1.24-1.18,2.65-1.18,4.15v321.86c0,1.36.34,2.65.97,3.81.64,1.14,1.56,2.12,2.72,2.85,1.17.74,2.45,1.14,3.76,1.22,1.29.07,2.6-.19,3.84-.78,16.38-7.86,33.76-13.97,51.91-18.08,17.6-3.99,35.94-6.09,54.83-6.09s37.22,2.1,54.82,6.09c18.15,4.11,35.53,10.22,51.91,18.08,1.24.59,2.55.85,3.84.78,1.31-.08,2.59-.48,3.76-1.22,1.16-.73,2.08-1.71,2.72-2.85.63-1.16.97-2.45.97-3.81V37.73"/>
    <path class="cls-2" d="M97.83,367.24h144.86c6.77,0,12.27-5.5,12.27-12.27V37.16c0-6.77-5.5-12.27-12.27-12.27H39.94c-6.77,0-12.27,5.5-12.27,12.27v317.81c0,6.77,5.5,12.27,12.27,12.27h57.89"/>
    <path class="cls-1" d="M36.43,350.64V37.16c0-1.94,1.58-3.51,3.51-3.51h210.64v320.5H39.94c-1.93,0-3.51-1.58-3.51-3.51"/>
  </g>
</svg>