<?xml version="1.0" encoding="UTF-8"?>
<svg id="Layer_2" data-name="Layer 2" xmlns="http://www.w3.org/2000/svg" viewBox="0 0 509.92 388.82">
  <defs>
    <style>
      .cls-1 {
        fill: #fff;
      }

      .cls-1, .cls-2 {
        fill-rule: evenodd;
      }

      .cls-3, .cls-2 {
        fill: #333;
      }
    </style>
  </defs>
  <g id="Layer_1-2" data-name="Layer 1">
    <path class="cls-2" d="M144.56,388.82H23.48c-12.91,0-23.48-10.56-23.48-23.48V80.07c0-12.91,10.57-23.48,23.48-23.48h462.95c12.91,0,23.48,10.57,23.48,23.48v285.27c0,12.92-10.57,23.48-23.48,23.48H144.56"/>
    <path class="cls-1" d="M27.67,36.61v318.9c0,1.24.59,2.31,1.64,2.97s2.27.73,3.39.19c32.88-15.77,69.71-24.61,108.62-24.61s75.74,8.84,108.62,24.61c1.12.54,2.34.47,3.39-.19s1.64-1.73,1.64-2.97V33.65c0-1.37-.72-2.54-1.95-3.15C219.36,13.79,181.43,4.39,141.31,4.39S63.27,13.79,29.62,30.5c-1.22.61-1.95,1.78-1.95,3.15v2.96"/>
    <path class="cls-3" d="M32.05,36.61v317.54c16.61-7.86,34.2-13.99,52.52-18.14,18.29-4.15,37.28-6.33,56.74-6.33s38.45,2.18,56.74,6.33c18.32,4.15,35.91,10.28,52.52,18.14V34.18c-16.62-8.21-34.31-14.61-52.8-18.94-18.11-4.23-37.02-6.47-56.46-6.47s-38.34,2.24-56.45,6.47c-18.5,4.33-36.18,10.73-52.81,18.94v2.43ZM23.29,37.73v-4.08c0-1.5.41-2.92,1.18-4.15.76-1.24,1.86-2.24,3.21-2.92,17.38-8.63,35.87-15.34,55.19-19.86C101.66,2.33,121.22,0,141.31,0s39.66,2.33,58.44,6.72c19.32,4.52,37.81,11.23,55.19,19.86,1.36.68,2.45,1.68,3.21,2.92.77,1.24,1.18,2.65,1.18,4.15v321.86c0,1.36-.34,2.65-.98,3.8-.63,1.15-1.55,2.13-2.72,2.86-1.16.74-2.44,1.14-3.75,1.22-1.3.07-2.6-.19-3.84-.78-16.38-7.86-33.76-13.97-51.91-18.08-17.59-3.99-35.94-6.09-54.82-6.09s-37.23,2.1-54.82,6.09c-18.15,4.11-35.54,10.22-51.91,18.08-1.24.59-2.55.85-3.84.78-1.31-.08-2.59-.48-3.76-1.22-1.16-.73-2.08-1.71-2.72-2.86-.64-1.15-.97-2.44-.97-3.8V37.73"/>
    <path class="cls-1" d="M482.25,36.61v318.9c0,1.24-.59,2.31-1.64,2.97s-2.27.73-3.39.19c-32.88-15.77-69.71-24.61-108.62-24.61s-75.74,8.84-108.62,24.61c-1.12.54-2.34.47-3.39-.19s-1.64-1.73-1.64-2.97V33.65c0-1.37.73-2.54,1.95-3.15,33.65-16.71,71.57-26.11,111.7-26.11s78.05,9.4,111.7,26.11c1.22.61,1.95,1.78,1.95,3.15v2.96"/>
    <path class="cls-3" d="M477.86,36.61v317.54c-16.61-7.86-34.2-13.99-52.52-18.14-18.29-4.15-37.28-6.33-56.74-6.33s-38.45,2.18-56.74,6.33c-18.32,4.15-35.91,10.28-52.52,18.14V34.18c16.62-8.21,34.31-14.61,52.8-18.94,18.12-4.23,37.02-6.47,56.46-6.47s38.34,2.24,56.45,6.47c18.5,4.33,36.19,10.73,52.81,18.94v2.43ZM486.63,37.73v-4.08c0-1.5-.42-2.92-1.18-4.15-.77-1.24-1.86-2.24-3.21-2.92-17.38-8.63-35.87-15.34-55.19-19.86-18.79-4.39-38.35-6.72-58.44-6.72s-39.65,2.33-58.44,6.72c-19.32,4.52-37.81,11.23-55.19,19.86-1.36.68-2.45,1.68-3.21,2.92-.77,1.24-1.19,2.65-1.19,4.15v321.86c0,1.36.34,2.65.98,3.8.64,1.15,1.55,2.13,2.72,2.86,1.16.74,2.44,1.14,3.76,1.22,1.29.07,2.6-.19,3.84-.78,16.38-7.86,33.76-13.97,51.91-18.08,17.6-3.99,35.95-6.09,54.82-6.09s37.23,2.1,54.82,6.09c18.15,4.11,35.54,10.22,51.91,18.08,1.24.59,2.55.85,3.84.78,1.31-.08,2.59-.48,3.75-1.22,1.16-.73,2.09-1.71,2.72-2.86.64-1.15.98-2.44.98-3.8V37.73"/>
  </g>
</svg>